<svg width="22" height="21" viewBox="0 0 22 21" fill="none" xmlns="http://www.w3.org/2000/svg">
<path d="M8.05661 13.4698L13.6448 3.35121C13.7216 3.21186 13.7984 3.07434 13.8679 2.93041C13.931 2.80023 13.9841 2.66913 14.0188 2.52702C14.092 2.22815 14.0719 1.91645 13.9585 1.63133C13.8477 1.35081 13.6486 1.11421 13.3914 0.957491C13.1387 0.803844 12.8411 0.741413 12.5482 0.780552C12.2555 0.819973 11.9875 0.958407 11.7762 1.17477C11.6756 1.27561 11.5933 1.39021 11.5174 1.51214C11.4333 1.646 11.3574 1.78535 11.2805 1.9247L10.9275 2.5637L10.5736 1.92378C10.4967 1.78535 10.4208 1.646 10.3367 1.51214C10.2628 1.3904 10.176 1.27699 10.0779 1.17385C9.87174 0.95981 9.59992 0.821314 9.30594 0.780552C9.01326 0.741701 8.71611 0.80412 8.4636 0.957491C8.20648 1.11427 8.00739 1.35085 7.89656 1.63133C7.78224 1.91645 7.76212 2.22815 7.8362 2.52702C7.87095 2.66913 7.924 2.80023 7.98619 2.93041C8.0557 3.07434 8.13252 3.21186 8.20935 3.35121L9.35076 5.41764L4.90403 13.4688H1.8557C1.70296 13.4688 1.54931 13.4688 1.39658 13.478C1.25756 13.4863 1.1222 13.5037 0.986841 13.5431C0.703319 13.6256 0.454551 13.7998 0.275291 14.0455C0.0969464 14.2903 0 14.5891 0 14.8963C0 15.2034 0.0969464 15.5023 0.274377 15.747C0.454551 15.9927 0.702404 16.166 0.986841 16.2494C1.1222 16.2889 1.25756 16.3063 1.39658 16.3145C1.54931 16.3237 1.70296 16.3237 1.85662 16.3237H13.835C13.8505 16.2898 13.8889 16.2045 13.9264 16.0762C14.306 14.778 13.3631 13.4688 12.0653 13.4688L8.05661 13.4698ZM2.84711 16.7903L2.12276 18.1655C2.04776 18.3085 1.97185 18.4497 1.90417 18.5973C1.84149 18.7301 1.79246 18.869 1.75784 19.0117C1.68467 19.3188 1.70479 19.6388 1.81637 19.9312C1.92704 20.2228 2.12185 20.4657 2.37153 20.6234C2.6203 20.7811 2.91022 20.8453 3.19557 20.804C3.48275 20.7637 3.74433 20.6225 3.95102 20.4006C4.0498 20.2952 4.13028 20.1788 4.20528 20.0541C4.28759 19.9166 4.36167 19.7736 4.43667 19.6305L5.48753 17.6356C5.40522 17.4981 4.62142 16.2879 2.84711 16.7903ZM21.6748 14.0345C21.4984 13.7951 21.2479 13.6211 20.9624 13.5394C20.8286 13.5025 20.6912 13.4806 20.5526 13.4743C20.399 13.4652 20.2463 13.4652 20.0926 13.4652H17.0553L13.0402 6.3005C12.5134 6.85489 12.1698 7.5585 12.0561 8.3156C11.9091 9.26259 12.085 10.2316 12.5555 11.0659L17.379 19.6773C17.4558 19.8148 17.5318 19.9523 17.6159 20.0843C17.6927 20.2035 17.775 20.3163 17.8747 20.4181C18.086 20.6307 18.354 20.7664 18.6476 20.8059C18.9402 20.8444 19.2356 20.7838 19.4908 20.6317C19.7474 20.4778 19.9469 20.2441 20.0588 19.9661C20.1731 19.6846 20.1923 19.3775 20.1191 19.0823C20.0831 18.9447 20.0326 18.8113 19.9682 18.6844C19.8996 18.5423 19.8219 18.4066 19.7451 18.2691L18.6329 16.2834H20.0926C20.2463 16.2834 20.399 16.2834 20.5526 16.2751C20.6917 16.2669 20.827 16.2494 20.9624 16.2109C21.2483 16.1292 21.4992 15.9548 21.6758 15.715C21.8546 15.4717 21.9507 15.1773 21.9501 14.8752C21.9507 14.573 21.8546 14.2787 21.6758 14.0354L21.6748 14.0345Z" fill="#465055"/>
</svg>
