<svg width="20" height="21" viewBox="0 0 20 21" fill="none" xmlns="http://www.w3.org/2000/svg">
<path fill-rule="evenodd" clip-rule="evenodd" d="M5.87727 0.829309C6.94364 0.7801 7.28364 0.769165 10 0.769165C12.7164 0.769165 13.0564 0.781012 14.1218 0.829309C15.1873 0.877606 15.9145 1.04801 16.5509 1.29497C17.2173 1.54739 17.8218 1.94197 18.3218 2.45228C18.8309 2.95257 19.2236 3.55766 19.4745 4.22653C19.7218 4.86442 19.8909 5.59344 19.94 6.65962C19.9891 7.73037 20 8.07118 20 10.7932C20 13.516 19.9882 13.8568 19.94 14.9258C19.8918 15.992 19.7218 16.721 19.4745 17.3589C19.2236 18.0278 18.8303 18.6339 18.3218 19.1349C17.8218 19.6452 17.2173 20.0389 16.5509 20.2904C15.9145 20.5383 15.1873 20.7078 14.1236 20.757C13.0564 20.8062 12.7164 20.8171 10 20.8171C7.28364 20.8171 6.94364 20.8053 5.87727 20.757C4.81364 20.7087 4.08636 20.5383 3.45 20.2904C2.78266 20.0389 2.17802 19.6446 1.67818 19.1349C1.16944 18.6343 0.775741 18.0285 0.524545 17.3598C0.278182 16.7219 0.109091 15.9929 0.06 14.9267C0.0109091 13.8559 0 13.5151 0 10.7932C0 8.07027 0.0118182 7.72946 0.06 6.66145C0.108182 5.59344 0.278182 4.86442 0.524545 4.22653C0.776112 3.55773 1.17011 2.95195 1.67909 2.45137C2.17822 1.94152 2.78225 1.54688 3.44909 1.29497C4.08545 1.04801 4.81273 0.878518 5.87636 0.829309H5.87727ZM14.0409 2.63363C12.9864 2.58533 12.67 2.57531 10 2.57531C7.33 2.57531 7.01364 2.58533 5.95909 2.63363C4.98364 2.67828 4.45455 2.8414 4.10182 2.979C3.63545 3.16125 3.30182 3.37722 2.95182 3.72806C2.62004 4.05161 2.36471 4.44549 2.20455 4.88082C2.06727 5.2344 1.90455 5.76476 1.86 6.74255C1.81182 7.79962 1.80182 8.11675 1.80182 10.7932C1.80182 13.4696 1.81182 13.7867 1.86 14.8438C1.90455 15.8215 2.06727 16.3519 2.20455 16.7055C2.36455 17.1402 2.62 17.5347 2.95182 17.8582C3.27455 18.1909 3.66818 18.4469 4.10182 18.6073C4.45455 18.7449 4.98364 18.908 5.95909 18.9527C7.01364 19.001 7.32909 19.011 10 19.011C12.6709 19.011 12.9864 19.001 14.0409 18.9527C15.0164 18.908 15.5455 18.7449 15.8982 18.6073C16.3645 18.4251 16.6982 18.2091 17.0482 17.8582C17.38 17.5347 17.6355 17.1402 17.7955 16.7055C17.9327 16.3519 18.0955 15.8215 18.14 14.8438C18.1882 13.7867 18.1982 13.4696 18.1982 10.7932C18.1982 8.11675 18.1882 7.79962 18.14 6.74255C18.0955 5.76476 17.9327 5.2344 17.7955 4.88082C17.6136 4.41334 17.3982 4.0789 17.0482 3.72806C16.7254 3.39551 16.3325 3.13957 15.8982 2.979C15.5455 2.8414 15.0164 2.67828 14.0409 2.63363ZM8.72273 13.8833C9.43605 14.1809 10.2303 14.2211 10.9699 13.9969C11.7095 13.7728 12.3485 13.2982 12.7778 12.6542C13.2071 12.0102 13.4001 11.2368 13.3237 10.4661C13.2473 9.69538 12.9064 8.97514 12.3591 8.4284C12.0102 8.07891 11.5884 7.8113 11.1239 7.64484C10.6595 7.47838 10.164 7.41722 9.67318 7.46575C9.18233 7.51428 8.70832 7.6713 8.28528 7.9255C7.86223 8.1797 7.50068 8.52476 7.22664 8.93584C6.9526 9.34693 6.7729 9.8138 6.70047 10.3029C6.62804 10.7919 6.66468 11.291 6.80776 11.7641C6.95084 12.2373 7.1968 12.6727 7.52793 13.0392C7.85906 13.4056 8.26711 13.6939 8.72273 13.8833ZM6.36545 7.14989C6.84275 6.67145 7.40938 6.29193 8.033 6.033C8.65662 5.77407 9.325 5.6408 10 5.6408C10.675 5.6408 11.3434 5.77407 11.967 6.033C12.5906 6.29193 13.1573 6.67145 13.6345 7.14989C14.1118 7.62833 14.4905 8.19632 14.7488 8.82143C15.0071 9.44654 15.14 10.1165 15.14 10.7932C15.14 11.4698 15.0071 12.1398 14.7488 12.7649C14.4905 13.39 14.1118 13.958 13.6345 14.4364C12.6706 15.4027 11.3632 15.9455 10 15.9455C8.63678 15.9455 7.3294 15.4027 6.36545 14.4364C5.40151 13.4702 4.85998 12.1596 4.85998 10.7932C4.85998 9.42666 5.40151 8.11614 6.36545 7.14989ZM16.28 6.40811C16.3983 6.29627 16.493 6.16178 16.5585 6.0126C16.624 5.86342 16.6589 5.70258 16.6613 5.53961C16.6637 5.37664 16.6334 5.21485 16.5723 5.06381C16.5111 4.91278 16.4204 4.77558 16.3054 4.66033C16.1904 4.54508 16.0536 4.45413 15.9029 4.39285C15.7522 4.33158 15.5908 4.30123 15.4282 4.30361C15.2657 4.30598 15.1052 4.34103 14.9564 4.40668C14.8076 4.47233 14.6734 4.56725 14.5618 4.68581C14.3448 4.91639 14.226 5.22266 14.2306 5.53961C14.2352 5.85656 14.3629 6.15923 14.5865 6.38337C14.8101 6.60751 15.1121 6.73547 15.4282 6.74009C15.7444 6.74471 16.05 6.62562 16.28 6.40811Z" fill="#465055"/>
</svg>
