<svg width="21" height="21" viewBox="0 0 21 21" fill="none" xmlns="http://www.w3.org/2000/svg">
<path d="M4.74976 20.8171V7.2908H0.264621V20.8171H4.74976ZM2.50777 5.4429C4.07181 5.4429 5.04536 4.40424 5.04536 3.10626C5.01622 1.779 4.07187 0.769165 2.53745 0.769165C1.00326 0.769165 0 1.77902 0 3.10626C0 4.4043 0.973303 5.4429 2.47849 5.4429H2.50763H2.50777ZM7.23226 20.8171H11.7174V13.2634C11.7174 12.8591 11.7465 12.4553 11.865 12.1663C12.1892 11.3586 12.9272 10.522 14.1662 10.522C15.7892 10.522 16.4385 11.7624 16.4385 13.5807V20.817H20.9233V13.0612C20.9233 8.90641 18.7106 6.97324 15.7596 6.97324C13.3401 6.97324 12.2777 8.32893 11.6876 9.25228H11.7175V7.29052H7.23236C7.29122 8.55976 7.23236 20.8169 7.23236 20.8169L7.23226 20.8171Z" fill="#465055"/>
</svg>
