<svg width="20" height="16" viewBox="0 0 20 16" fill="none" xmlns="http://www.w3.org/2000/svg">
<path d="M20 2.89574V14.5145C20 15.2697 19.39 15.8811 18.6367 15.8811H15.4542V8.13583L10 12.2374L4.54583 8.13583V15.882H1.36333C1.18423 15.882 1.00688 15.8466 0.841416 15.7779C0.675954 15.7091 0.525625 15.6084 0.399017 15.4814C0.272408 15.3544 0.172003 15.2036 0.103539 15.0377C0.0350736 14.8718 -0.000109223 14.694 2.5471e-07 14.5145V2.89574C2.5471e-07 1.20584 1.92417 0.241019 3.2725 1.25512L4.54583 2.21326L10 6.31312L15.4542 2.21159L16.7275 1.25512C18.075 0.241855 20 1.20584 20 2.89574Z" fill="#465055"/>
</svg>
