<svg width="19" height="21" viewBox="0 0 19 21" fill="none" xmlns="http://www.w3.org/2000/svg">
<path d="M0 1.99944V19.586C0.000117538 19.6242 0.0114703 19.6614 0.0326349 19.6931C0.0537994 19.7249 0.0838334 19.7496 0.118971 19.7643C0.154108 19.7789 0.192785 19.7829 0.230151 19.7756C0.267517 19.7683 0.301909 19.7502 0.329014 19.7234L9.46417 10.7932L0.329014 1.86206C0.301909 1.83527 0.267517 1.8171 0.230151 1.80983C0.192785 1.80255 0.154108 1.8065 0.118971 1.82117C0.0838334 1.83584 0.0537994 1.86059 0.0326349 1.8923C0.0114703 1.92402 0.000117538 1.96129 0 1.99944Z" fill="#465055"/>
<path d="M13.2945 7.12364L1.84018 0.797938L1.83304 0.79391C1.63572 0.686513 1.44822 0.954111 1.60983 1.10984L10.5887 9.71594L13.2945 7.12364Z" fill="#465055"/>
<path d="M1.61059 20.4765C1.4481 20.6322 1.63559 20.8998 1.83381 20.7924L1.84095 20.7884L13.2944 14.4626L10.5886 11.8694L1.61059 20.4765Z" fill="#465055"/>
<path d="M17.9186 9.67432L14.72 7.90845L11.7124 10.7931L14.72 13.6764L17.9186 11.9119C18.7887 11.4299 18.7887 10.1563 17.9186 9.67432Z" fill="#465055"/>
</svg>
