<svg width="20" height="21" viewBox="0 0 20 21" fill="none" xmlns="http://www.w3.org/2000/svg">
<path d="M14.36 12.7979C14.44 12.1364 14.5 11.4748 14.5 10.7932C14.5 10.1115 14.44 9.44994 14.36 8.78835H17.74C17.9 9.42989 18 10.1015 18 10.7932C18 11.4848 17.9 12.1564 17.74 12.7979H14.36ZM12.59 18.3713C13.19 17.2586 13.65 16.0557 13.97 14.8027H16.92C15.9512 16.475 14.4141 17.7418 12.59 18.3713ZM12.34 12.7979H7.66C7.56 12.1364 7.5 11.4748 7.5 10.7932C7.5 10.1115 7.56 9.43991 7.66 8.78835H12.34C12.43 9.43991 12.5 10.1115 12.5 10.7932C12.5 11.4748 12.43 12.1364 12.34 12.7979ZM10 18.7722C9.17 17.5694 8.5 16.2362 8.09 14.8027H11.91C11.5 16.2362 10.83 17.5694 10 18.7722ZM6 6.78356H3.08C4.03886 5.10676 5.5748 3.838 7.4 3.21502C6.8 4.32768 6.35 5.53056 6 6.78356ZM3.08 14.8027H6C6.35 16.0557 6.8 17.2586 7.4 18.3713C5.57862 17.7414 4.04485 16.4745 3.08 14.8027ZM2.26 12.7979C2.1 12.1564 2 11.4848 2 10.7932C2 10.1015 2.1 9.42989 2.26 8.78835H5.64C5.56 9.44994 5.5 10.1115 5.5 10.7932C5.5 11.4748 5.56 12.1364 5.64 12.7979H2.26ZM10 2.80403C10.83 4.00691 11.5 5.35013 11.91 6.78356H8.09C8.5 5.35013 9.17 4.00691 10 2.80403ZM16.92 6.78356H13.97C13.657 5.54204 13.1936 4.34361 12.59 3.21502C14.43 3.84653 15.96 5.11958 16.92 6.78356ZM10 0.769165C4.47 0.769165 0 5.27996 0 10.7932C0 13.4517 1.05357 16.0013 2.92893 17.8812C3.85752 18.812 4.95991 19.5504 6.17317 20.0541C7.38642 20.5579 8.68678 20.8171 10 20.8171C12.6522 20.8171 15.1957 19.761 17.0711 17.8812C18.9464 16.0013 20 13.4517 20 10.7932C20 9.47678 19.7413 8.1733 19.2388 6.95714C18.7362 5.74097 17.9997 4.63594 17.0711 3.70512C16.1425 2.77431 15.0401 2.03595 13.8268 1.5322C12.6136 1.02844 11.3132 0.769165 10 0.769165Z" fill="#465055"/>
</svg>
